<svg width="75" height="75" viewBox="0 0 75 75" fill="none" xmlns="http://www.w3.org/2000/svg">
<g filter="url(#filter0_d_1077_34)">
<rect x="3.96387" y="3.96362" width="66.2181" height="66.2181" rx="14.9269" fill="#F1F2F2"/>
<path d="M16.0793 39.6741C16.4334 43.8583 14.4644 45.4241 11.0471 44.5205C10.8518 44.4713 10.6707 44.4237 10.4992 44.3728C9.8958 44.1934 9.36542 43.59 9.29555 43.0135C9.21456 42.3482 9.13357 41.6844 9.05259 41.0207C8.97954 40.4188 9.43688 40.0012 10.0689 40.0869C11.4742 40.2918 12.608 39.9345 12.4492 38.383C11.903 33.1396 11.3567 27.9152 10.8089 22.7114C10.739 22.0635 11.2154 21.3839 11.8728 21.1997C12.3111 21.079 12.7478 20.9615 13.1876 20.8456C13.8498 20.6693 14.439 21.1012 14.5009 21.8047C15.0265 27.7421 15.5521 33.6985 16.0762 39.6741H16.0793ZM27.7667 45.6146C27.9065 46.5214 27.438 47.2899 26.7854 47.2185C26.4106 47.1788 26.0375 47.1375 25.6627 47.093C25.1355 47.0295 24.6607 46.4483 24.5464 45.7369C24.3129 44.2585 24.0763 42.7881 23.8381 41.3255C23.8381 41.3525 23.8413 41.3795 23.8429 41.4065C22.8806 41.3382 21.9183 41.262 20.956 41.1795C20.4161 41.135 19.9937 41.5876 19.9651 42.2434C19.9222 43.2025 19.8809 44.1569 19.8396 45.1065C19.811 45.7591 19.3982 46.172 18.8694 46.0751C18.5724 46.0212 18.2755 45.9672 17.9785 45.91C17.3211 45.7814 16.7542 44.9747 16.7923 44.214C17.1623 36.7983 17.6006 28.9775 18.1326 20.8217C18.1754 20.1548 18.628 19.5752 19.2029 19.4609C20.1779 19.2687 21.1561 19.0924 22.139 18.9305C22.717 18.8336 23.2395 19.2655 23.3665 19.9452C24.9386 28.2312 26.4106 36.8268 27.7683 45.613L27.7667 45.6146ZM22.8552 36.0249C22.2454 32.5663 21.6197 29.1554 20.9798 25.8032C20.9607 25.8048 20.9417 25.808 20.921 25.8095C20.7194 29.2459 20.5352 32.6378 20.3621 35.9773C20.3303 36.7157 20.7988 36.7792 21.4006 36.7935C21.5721 36.7983 21.7436 36.8014 21.9167 36.8062C22.5217 36.8221 22.9838 36.7919 22.8552 36.0249ZM41.6773 17.9348C40.5102 17.8586 39.3398 17.8078 38.1695 17.7792C37.5708 17.7649 37.0627 18.3191 36.9785 19.0702C36.3751 24.9886 35.8146 30.918 35.2921 36.838C35.2731 36.838 35.2492 36.838 35.2302 36.838C34.6553 30.9148 34.0392 24.9997 33.3834 19.1131C33.2929 18.3667 32.78 17.8268 32.1813 17.857C31.011 17.9142 29.8438 17.9936 28.6798 18.0984C28.0192 18.1587 27.5095 18.8765 27.5397 19.6911C27.8461 28.4233 28.151 37.1619 28.4575 45.9068C28.4877 46.723 28.9847 47.4281 29.5691 47.4741C29.8184 47.4932 30.0677 47.5107 30.317 47.5281C30.9014 47.5694 31.3603 46.9231 31.3428 46.091C31.246 39.7487 31.1539 33.4032 31.065 27.0561C31.0872 27.0561 31.1078 27.0561 31.1301 27.0545C31.9415 33.4572 32.7006 39.917 33.4056 46.4007C33.4945 47.1438 33.9455 47.7076 34.468 47.7203C34.9523 47.7314 35.435 47.7393 35.9178 47.7441C36.4402 47.7489 36.8864 47.1978 36.9674 46.4531C37.6518 39.9631 38.3934 33.4715 39.1922 27.0132C39.2144 27.0132 39.2366 27.0132 39.2573 27.0132C39.181 33.4079 39.1048 39.8043 39.0286 46.199C39.0191 47.0359 39.4859 47.7044 40.0687 47.6822C40.3974 47.6695 40.7245 47.6568 41.0548 47.6409C41.6392 47.6123 42.1299 46.912 42.1521 46.0847C42.3808 37.227 42.6095 28.3709 42.8365 19.518C42.8588 18.6923 42.3411 17.9777 41.6789 17.9332L41.6773 17.9348ZM51.7688 32.0582C51.7672 32.0836 51.7657 32.1106 51.7641 32.136C53.5807 32.9998 54.1476 34.9673 53.9332 37.7526C53.8745 38.5069 53.8189 39.2628 53.7601 40.0186C53.4425 44.0505 51.556 46.5785 48.269 47.0247C46.8954 47.1931 45.5234 47.3328 44.1545 47.4424C43.5686 47.49 43.116 46.8548 43.1398 46.0307C43.4066 37.2191 43.6718 28.4106 43.937 19.6069C43.9608 18.7828 44.5166 18.1651 45.174 18.2349C46.6349 18.3906 48.0911 18.5827 49.5409 18.8098C53.3441 19.4545 54.7891 21.865 54.4779 25.9048C54.4509 26.2573 54.4255 26.6115 54.3985 26.964C54.1921 29.6826 53.3663 31.3325 51.7672 32.0582H51.7688ZM48.5072 34.329C48.3642 34.329 48.2229 34.3258 48.0816 34.3242C47.4639 34.3163 46.9335 34.9642 46.8985 35.7693C46.8096 37.7383 46.7223 39.7074 46.6334 41.6781C46.5984 42.4832 47.051 43.1041 47.6481 43.058C47.926 43.0374 48.2054 43.0167 48.4849 42.9945C49.6092 42.9024 50.2603 42.1703 50.3873 40.1203C50.4365 39.3168 50.4858 38.5133 50.535 37.7097C50.6938 35.1484 50.0824 34.3496 48.5072 34.329ZM49.2329 22.8273C49.0407 22.8051 48.8486 22.7829 48.658 22.7606C48.0133 22.686 47.4607 23.2831 47.4242 24.0882C47.3543 25.646 47.2844 27.2038 47.2146 28.7616C47.1796 29.5667 47.6592 30.2384 48.2848 30.267C48.3642 30.2701 48.4452 30.2749 48.5246 30.2781C49.8331 30.3368 50.6716 29.6683 50.8065 27.4563C50.8367 26.9418 50.8669 26.4273 50.8986 25.9112C51.0177 23.9373 50.5143 22.9861 49.2329 22.8273ZM64.8711 27.8405C64.4424 31.5453 64.0136 35.2627 63.5865 38.9928C63.1942 42.3371 61.5031 45.3082 58.4891 45.5384C55.5307 45.7639 54.2143 44.1807 54.5113 39.9805C54.8463 35.4151 55.1798 30.8577 55.5148 26.3066C55.8086 22.1191 57.6364 20.4565 60.7917 21.052C63.8596 21.6316 65.2634 24.5201 64.8711 27.839V27.8405ZM60.4899 25.5872C59.7865 25.4157 59.2847 25.8905 59.1354 27.4086C58.7543 31.2626 58.3716 35.1261 57.9889 38.996C57.8396 40.5204 58.2049 40.9778 58.8909 40.9397C59.7357 40.892 60.0596 40.2251 60.2168 38.7927C60.617 35.1325 61.0171 31.4802 61.4157 27.839C61.5729 26.4146 61.1934 25.7603 60.4899 25.5888V25.5872Z" fill="#2363EB"/>
<path d="M13.8346 47.4344C15.9673 47.887 16.9852 48.4349 17.4489 49.5274C17.6601 50.0228 17.2932 50.4262 16.7073 50.3484C16.6596 50.342 16.6104 50.3357 16.5628 50.3277C16.2023 50.2785 15.8387 50.0466 15.664 49.7322C15.4432 49.3352 14.9732 49.1383 13.9093 48.9478C12.6516 48.7191 12.3404 48.8636 12.4515 49.5766C12.5897 50.4643 12.9851 50.5691 14.7557 50.8899C17.2662 51.3392 18.0777 51.695 18.327 53.4719C18.3397 53.5576 18.3508 53.6434 18.3635 53.7291C18.589 55.3314 17.7601 55.9031 15.3226 55.8792C15.232 55.8792 15.1415 55.8761 15.0494 55.8745C12.9549 55.8491 11.9577 55.3854 11.4495 54.0864C11.2256 53.5116 11.5559 53.0018 12.1308 53.0558C12.172 53.059 12.2133 53.0638 12.2562 53.067C12.6183 53.0987 12.993 53.3321 13.1677 53.6688C13.3995 54.1102 13.8728 54.277 14.9573 54.3341C16.2483 54.3993 16.5771 54.2166 16.4802 53.5529C16.3659 52.7811 15.9895 52.6636 14.2983 52.4254C11.8068 52.0856 10.9144 51.5901 10.5793 49.4654C10.5634 49.3638 10.5476 49.2622 10.5317 49.159C10.2315 47.2502 11.0859 46.8231 13.5504 47.3709C13.6457 47.3916 13.741 47.4122 13.8362 47.4313L13.8346 47.4344ZM24.5502 50.5484C24.3009 50.5246 24.05 50.5008 23.8007 50.4754C23.2973 50.423 22.9257 50.6834 22.9686 51.0582C23.129 52.4476 23.291 53.8387 23.4529 55.2298C23.4958 55.6045 23.1433 55.9031 22.6637 55.8983C22.6272 55.8983 22.5891 55.8983 22.5526 55.8983C22.073 55.8935 21.6443 55.5744 21.595 55.1837C21.4108 53.7418 21.2282 52.3 21.0456 50.8613C20.9964 50.4738 20.5501 50.1117 20.0483 50.0451C19.799 50.0133 19.5497 49.9799 19.3004 49.9466C18.8002 49.8815 18.3476 49.4924 18.2905 49.0827C18.2333 48.6731 18.5969 48.4126 19.1051 48.4952C20.8709 48.781 22.6415 49.0256 24.4137 49.2288C24.9234 49.2876 25.3633 49.6227 25.3982 49.9815C25.4331 50.3404 25.0536 50.5945 24.5518 50.5484H24.5502ZM27.2021 49.5163C27.7119 49.5639 28.147 49.8767 28.1724 50.2229C28.255 51.3043 28.3375 52.3873 28.4201 53.4687C28.4979 54.4707 28.914 54.7534 30.3749 54.782C31.8247 54.809 32.2201 54.5517 32.182 53.5878C32.1391 52.5445 32.0962 51.5012 32.0534 50.4579C32.0391 50.1245 32.4424 49.8736 32.9521 49.8958C32.9918 49.8974 33.0315 49.899 33.0697 49.9005C33.581 49.9212 34.0002 50.2023 34.0066 50.531C34.0304 51.6314 34.0542 52.7303 34.0796 53.8308C34.1098 55.4076 33.0951 56.0523 30.6051 56.0396C30.5019 56.0396 30.4003 56.0396 30.2971 56.038C27.8056 56.0285 26.7099 55.3187 26.5479 53.61C26.4383 52.427 26.3287 51.2424 26.2208 50.0609C26.1874 49.7052 26.5733 49.4591 27.0846 49.5067C27.1243 49.5099 27.164 49.5147 27.2021 49.5178V49.5163ZM39.2262 49.9863C42.1576 49.9387 43.2437 50.6739 43.085 52.8288C43.0786 52.9129 43.0722 52.9987 43.0675 53.0828C42.9087 55.2298 41.7781 56.0412 39.0404 56.0237C38.1114 56.019 37.1809 56.0142 36.2519 56.0094C35.774 56.0079 35.3817 55.7379 35.3786 55.4092C35.3643 53.7927 35.35 52.1777 35.3357 50.5611C35.3325 50.2324 35.7438 49.9752 36.2551 49.9815C37.246 49.9942 38.2353 49.9958 39.2262 49.9847V49.9863ZM37.2619 54.2087C37.2587 54.5358 37.6493 54.8042 38.1337 54.8058C38.4005 54.8058 38.6672 54.8058 38.9324 54.8074C40.5839 54.8105 41.0571 54.458 41.1349 52.9891C41.2127 51.5171 40.7586 51.1868 39.0388 51.2043C38.7625 51.2059 38.4862 51.2074 38.2083 51.2074C37.7033 51.2074 37.2921 51.4711 37.2889 51.7998C37.2794 52.6033 37.2698 53.4052 37.2619 54.2087ZM44.033 55.4314C44.1679 53.7641 44.3029 52.0951 44.4395 50.4246C44.4665 50.0863 44.9016 49.7878 45.4113 49.756C45.451 49.7529 45.4891 49.7513 45.5288 49.7481C46.0386 49.7148 46.4229 49.9657 46.3879 50.3134C46.2196 52.0189 46.0529 53.7228 45.8877 55.4251C45.8528 55.7713 45.4383 56.0507 44.9603 56.0491C44.9238 56.0491 44.8873 56.0491 44.8492 56.0491C44.3712 56.0476 44.0044 55.7697 44.0314 55.4314H44.033ZM52.0157 49.0891C54.901 48.7207 55.8839 49.5496 55.4695 52.2015C55.4536 52.3047 55.4377 52.4064 55.4218 52.5096C55.0074 55.1535 53.7608 56.1746 51.0534 56.1428C50.9517 56.1428 50.8485 56.1428 50.7469 56.1428C48.0505 56.1174 47.0469 55.2218 47.2835 52.9621C47.2931 52.8732 47.3026 52.7843 47.3121 52.6954C47.5471 50.4278 48.8159 49.4654 51.6917 49.1288C51.7997 49.1161 51.9093 49.1034 52.0173 49.0907L52.0157 49.0891ZM49.2447 52.7414C49.0493 54.3611 49.4717 54.8137 51.0819 54.7851C52.7048 54.7565 53.2543 54.25 53.5147 52.4937C53.7751 50.7342 53.3543 50.3007 51.6679 50.4675C49.9942 50.6278 49.44 51.1185 49.2447 52.7398V52.7414ZM60.7129 47.7362C62.8361 47.3185 63.7063 47.5297 63.8079 48.7128C63.8539 49.2495 63.3315 49.8656 62.7519 49.9482C62.7043 49.9545 62.6566 49.9625 62.6074 49.9688C62.2485 50.0212 61.95 49.8688 61.8738 49.5718C61.7785 49.1955 61.3529 49.1415 60.2937 49.3098C59.0392 49.5051 58.6613 49.7497 58.5533 50.4055C58.4183 51.2217 58.8042 51.2202 60.5399 51.1042C62.998 50.9296 63.6967 51.1693 63.3315 53.302C63.314 53.4036 63.2966 53.5068 63.2791 53.6084C62.9456 55.5426 61.9182 56.2238 59.4918 56.1937C59.4013 56.1937 59.3108 56.1937 59.2203 56.1921C57.1337 56.173 56.2762 55.7697 56.1396 54.7041C56.0793 54.2341 56.5699 53.7577 57.1432 53.726C57.1845 53.7244 57.2258 53.7212 57.2687 53.7196C57.6307 53.7006 57.9404 53.8689 58.015 54.1674C58.1134 54.5565 58.5422 54.6771 59.622 54.6454C60.9067 54.6073 61.3005 54.3786 61.4259 53.6529C61.5689 52.8113 61.2274 52.7414 59.5664 52.7954C57.1146 52.8764 56.3318 52.6001 56.6128 50.8279C56.6271 50.7422 56.6398 50.6564 56.6541 50.5707C56.9034 48.9843 57.9721 48.2634 60.4303 47.7917C60.5256 47.7743 60.6208 47.7552 60.7161 47.7377L60.7129 47.7362Z" fill="#101010"/>
</g>
<defs>
<filter id="filter0_d_1077_34" x="0.946734" y="0.787694" width="73.8405" height="73.8404" filterUnits="userSpaceOnUse" color-interpolation-filters="sRGB">
<feFlood flood-opacity="0" result="BackgroundImageFix"/>
<feColorMatrix in="SourceAlpha" type="matrix" values="0 0 0 0 0 0 0 0 0 0 0 0 0 0 0 0 0 0 127 0" result="hardAlpha"/>
<feOffset dx="0.793982" dy="0.635186"/>
<feGaussianBlur stdDeviation="1.90556"/>
<feComposite in2="hardAlpha" operator="out"/>
<feColorMatrix type="matrix" values="0 0 0 0 0 0 0 0 0 0 0 0 0 0 0 0 0 0 0.25 0"/>
<feBlend mode="normal" in2="BackgroundImageFix" result="effect1_dropShadow_1077_34"/>
<feBlend mode="normal" in="SourceGraphic" in2="effect1_dropShadow_1077_34" result="shape"/>
</filter>
</defs>
</svg>
